HIERARCHY
ROOT hip
{
  OFFSET 0 0 0
  CHANNELS 6 Xposition Yposition Zposition Zrotation Yrotation Xrotation
  JOINT abdomen
  {
    OFFSET 0 20.6881 -0.73152
    CHANNELS 3 Zrotation Xrotation Yrotation
    JOINT chest
    {
      OFFSET 0 11.7043 -0.48768
      CHANNELS 3 Zrotation Xrotation Yrotation
      JOINT neck
      {
        OFFSET 0 22.1894 -2.19456
        CHANNELS 3 Zrotation Xrotation Yrotation
        JOINT head
        {
          OFFSET -0.24384 7.07133 1.2192
          CHANNELS 3 Zrotation Xrotation Yrotation
          JOINT leftEye
          {
            OFFSET 4.14528 8.04674 8.04672
            CHANNELS 3 Zrotation Xrotation Yrotation
            End Site
            {
              OFFSET 1 0 0
            }
          }
          JOINT rightEye
          {
            OFFSET -3.6576 8.04674 8.04672
            CHANNELS 3 Zrotation Xrotation Yrotation
            End Site
            {
              OFFSET 1 0 0
            }
          }
        }
      }
      JOINT rCollar
      {
        OFFSET -2.68224 19.2634 -4.8768
        CHANNELS 3 Zrotation Xrotation Yrotation
        JOINT rShldr
        {
          OFFSET -8.77824 -1.95073 1.46304
          CHANNELS 3 Zrotation Xrotation Yrotation
          JOINT rForeArm
          {
            OFFSET -28.1742 -1.7115 0.48768
            CHANNELS 3 Zrotation Xrotation Yrotation
            JOINT rHand
            {
              OFFSET -22.5879 0.773209 7.07136
              CHANNELS 3 Zrotation Xrotation Yrotation
              JOINT rThumb1
              {
                OFFSET -1.2192 -0.487915 3.41376
                CHANNELS 3 Zrotation Xrotation Yrotation
                JOINT rThumb2
                {
                  OFFSET -3.37035 -0.52449 3.41376
                  CHANNELS 3 Zrotation Xrotation Yrotation
                  End Site
                  {
                    OFFSET -1.78271 -1.18214 1.43049
                  }
                }
              }
              JOINT rIndex1
              {
                OFFSET -7.75947 0.938293 5.60832
                CHANNELS 3 Zrotation Xrotation Yrotation
                JOINT rIndex2
                {
                  OFFSET -2.54057 -0.884171 1.56538
                  CHANNELS 3 Zrotation Xrotation Yrotation
                  End Site
                  {
                    OFFSET -1.62519 -0.234802 1.16502
                  }
                }
              }
              JOINT rMid1
              {
                OFFSET -8.24714 1.18213 3.41376
                CHANNELS 3 Zrotation Xrotation Yrotation
                JOINT rMid2
                {
                  OFFSET -3.10165 -0.590103 1.0647
                  CHANNELS 3 Zrotation Xrotation Yrotation
                  End Site
                  {
                    OFFSET -2.48547 -0.328903 0.83742
                  }
                }
              }
              JOINT rRing1
              {
                OFFSET -8.82822 0.546677 1.51678
                CHANNELS 3 Zrotation Xrotation Yrotation
                JOINT rRing2
                {
                  OFFSET -2.60934 -0.819778 -0.0198488
                  CHANNELS 3 Zrotation Xrotation Yrotation
                  End Site
                  {
                    OFFSET -2.33842 -0.294052 0.168128
                  }
                }
              }
              JOINT rPinky1
              {
                OFFSET -8.27202 -0.0477905 -0.4584
                CHANNELS 3 Zrotation Xrotation Yrotation
                JOINT rPinky2
                {
                  OFFSET -1.82734 -0.647385 -0.700984
                  CHANNELS 3 Zrotation Xrotation Yrotation
                  End Site
                  {
                    OFFSET -1.69225 -0.51767 -0.607171
                  }
                }
              }
            }
          }
        }
      }
      JOINT lCollar
      {
        OFFSET 2.68224 19.2634 -4.8768
        CHANNELS 3 Zrotation Xrotation Yrotation
        JOINT lShldr
        {
          OFFSET 8.77824 -1.95073 1.46304
          CHANNELS 3 Zrotation Xrotation Yrotation
          JOINT lForeArm
          {
            OFFSET 28.1742 -1.7115 0.48768
            CHANNELS 3 Zrotation Xrotation Yrotation
            JOINT lHand
            {
              OFFSET 22.5879 0.773209 7.07136
              CHANNELS 3 Zrotation Xrotation Yrotation
              JOINT lThumb1
              {
                OFFSET 1.2192 -0.487915 3.41376
                CHANNELS 3 Zrotation Xrotation Yrotation
                JOINT lThumb2
                {
                  OFFSET 3.37035 -0.52449 3.41376
                  CHANNELS 3 Zrotation Xrotation Yrotation
                  End Site
                  {
                    OFFSET 1.78271 -1.18214 1.43049
                  }
                }
              }
              JOINT lIndex1
              {
                OFFSET 7.75947 0.938293 5.60832
                CHANNELS 3 Zrotation Xrotation Yrotation
                JOINT lIndex2
                {
                  OFFSET 2.54057 -0.884171 1.56538
                  CHANNELS 3 Zrotation Xrotation Yrotation
                  End Site
                  {
                    OFFSET 1.62519 -0.234802 1.16502
                  }
                }
              }
              JOINT lMid1
              {
                OFFSET 8.24714 1.18213 3.41376
                CHANNELS 3 Zrotation Xrotation Yrotation
                JOINT lMid2
                {
                  OFFSET 3.10165 -0.590103 1.0647
                  CHANNELS 3 Zrotation Xrotation Yrotation
                  End Site
                  {
                    OFFSET 2.48547 -0.328903 0.83742
                  }
                }
              }
              JOINT lRing1
              {
                OFFSET 8.82822 0.546677 1.51678
                CHANNELS 3 Zrotation Xrotation Yrotation
                JOINT lRing2
                {
                  OFFSET 2.60934 -0.819778 -0.0198488
                  CHANNELS 3 Zrotation Xrotation Yrotation
                  End Site
                  {
                    OFFSET 2.33842 -0.294052 0.168128
                  }
                }
              }
              JOINT lPinky1
              {
                OFFSET 8.27202 -0.0477905 -0.4584
                CHANNELS 3 Zrotation Xrotation Yrotation
                JOINT lPinky2
                {
                  OFFSET 1.82734 -0.647385 -0.700984
                  CHANNELS 3 Zrotation Xrotation Yrotation
                  End Site
                  {
                    OFFSET 1.69225 -0.51767 -0.607171
                  }
                }
              }
            }
          }
        }
      }
    }
  }
  JOINT rButtock
  {
    OFFSET -8.77824 4.35084 1.2192
    CHANNELS 3 Zrotation Xrotation Yrotation
    JOINT rThigh
    {
      OFFSET 0 -1.70687 -2.19456
      CHANNELS 3 Zrotation Xrotation Yrotation
      JOINT rShin
      {
        OFFSET 0 -36.8199 0.73152
        CHANNELS 3 Zrotation Xrotation Yrotation
        JOINT rFoot
        {
          OFFSET 0.73152 -45.1104 -5.12064
          CHANNELS 3 Zrotation Xrotation Yrotation
          End Site
          {
            OFFSET -1.1221 -3.69964 12.103
          }
        }
      }
    }
  }
  JOINT lButtock
  {
    OFFSET 8.77824 4.35084 1.2192
    CHANNELS 3 Zrotation Xrotation Yrotation
    JOINT lThigh
    {
      OFFSET 0 -1.70687 -2.19456
      CHANNELS 3 Zrotation Xrotation Yrotation
      JOINT lShin
      {
        OFFSET 0 -36.8199 0.73152
        CHANNELS 3 Zrotation Xrotation Yrotation
        JOINT lFoot
        {
          OFFSET -0.73152 -45.1104 -5.12064
          CHANNELS 3 Zrotation Xrotation Yrotation
          End Site
          {
            OFFSET 1.1221 -3.69964 12.103
          }
        }
      }
    }
  }
}
MOTION
Frames:	4
Frame Time:	0.00833333
0.0 0.0 0.0 0.0 0.0 0.0 0.0 0.0 0.0 0.0 0.0 0.0 0.0 0.0 0.0 0.0 0.0 0.0 0.0 0.0 0.0 0.0 0.0 0.0 0.0 0.0 0.0 0.0 0.0 0.0 0.0 0.0 0.0 0.0 0.0 0.0 0.0 0.0 0.0 0.0 0.0 0.0 0.0 0.0 0.0 0.0 0.0 0.0 0.0 0.0 0.0 0.0 0.0 0.0 0.0 0.0 0.0 0.0 0.0 0.0 0.0 0.0 0.0 0.0 0.0 0.0 0.0 0.0 0.0 0.0 0.0 0.0 0.0 0.0 0.0 0.0 0.0 0.0 0.0 0.0 0.0 0.0 0.0 0.0 0.0 0.0 0.0 0.0 0.0 0.0 0.0 0.0 0.0 0.0 0.0 0.0 0.0 0.0 0.0 0.0 0.0 0.0 0.0 0.0 0.0 0.0 0.0 0.0 0.0 0.0 0.0 0.0 0.0 0.0 0.0 0.0 0.0 0.0 0.0 0.0 0.0 0.0 0.0 0.0 0.0 0.0 0.0 0.0 0.0 0.0 0.0 0.0
148.202 83.6049 -1.10055 0.0 -0.0 0.0 -0.0 -4.771896 -180.0 0.0 -4.771896 180.0 -8.06909 8.693804 -71.663951 10.772633 4.942713 71.812002 -0.0 -0.0 0.0 -0.0 -0.0 0.0 -155.417258 -2.951435 161.718542 23.225838 -15.36645 15.781419 91.6569 71.884134 -106.034196 -144.807239 65.496584 122.175053 27.451228 -26.099095 2.267476 -8.709739 -1.557795 -10.892359 5.921393 -10.174578 -2.968574 -67.209461 45.220351 43.922887 -125.644075 49.839986 115.274123 17.522005 -43.498643 -3.446977 -145.119466 0.267775 -179.212461 -139.639474 79.294933 164.360585 -23.839824 -36.726713 -22.932955 12.391447 42.054561 10.370121 155.417258 -2.951435 -161.718542 -23.225838 -15.36645 -15.781419 -4.569543 -1.513802 33.586118 -169.996545 -18.365001 -143.612452 -4.53085 -4.514112 0.520964 -17.106622 -31.644059 16.356142 -15.558612 -27.950605 5.75049 -2.137249 3.08232 -4.894416 -179.328838 -59.004958 -141.728729 7.152834 25.827795 -9.173139 145.119466 0.267753 179.212454 144.615105 -5.234715 178.489858 23.391137 -36.34947 22.493225 13.486875 -31.000793 12.892407 -180.0 75.749642 -0.0 -180.0 75.749642 -0.0 -3.969033 2.122794 -40.0054 -57.244284 -43.269749 38.677388 -180.0 75.749642 -0.0 -180.0 75.749642 -0.0 -6.817693 3.579341 -71.6195 118.628831 53.024735 -48.143032
148.175 83.5884 -1.00754 0.0 -0.0 0.0 -0.0 0.0 -0.0 -0.0 -0.0 0.0 -3.941986 17.932259 -132.771391 10.667824 15.013811 131.983833 -0.0 -0.0 0.0 -0.0 -0.0 0.0 -9.651699 34.836178 11.199233 -165.574743 -13.577932 -177.316802 -11.845534 -83.050314 -49.072202 164.93776 -30.843491 141.056307 88.928376 -50.831327 37.599672 -59.079198 30.960553 19.342703 -33.797169 34.48579 25.494234 -171.344257 -13.492632 118.487529 -170.281554 -36.72314 145.341052 -5.55101 25.701989 8.089059 -0.035878 5.254226 1.653575 -163.215566 -63.921117 -176.463257 54.223266 87.258986 -14.504216 52.234283 79.159518 -16.88129 143.620413 38.233348 -148.080496 -26.563318 -35.117184 -6.903276 -22.351496 75.677177 52.353185 -174.849094 -3.90606 -145.057771 -2.016417 -2.000371 0.275365 126.387486 -18.948426 -113.239417 -0.184726 -0.300416 0.104009 160.807963 3.723987 -108.04038 36.036059 51.723116 -29.832321 2.008044 12.742737 0.49441 -0.004873 1.771387 -0.556475 163.212001 25.537008 -168.249423 0.449268 -1.158545 0.415578 156.434722 35.819792 148.28392 -180.0 75.749642 -0.0 -180.0 75.749642 -0.0 -3.969033 2.122794 -40.0054 -57.244284 -43.269749 38.677388 -180.0 75.749642 -0.0 -180.0 75.749642 -0.0 -6.817693 3.579341 -71.6195 118.628831 53.024735 -48.143032
148.168 83.5647 -0.9446719999999998 0.0 -0.0 -0.0 -0.0 -0.0 -0.0 -0.0 0.0 0.0 1.681211 -0.191291 9.638157 -1.625502 0.469952 -9.628684 -0.0 -0.0 0.0 -0.0 -0.0 0.0 -159.220516 -48.028485 170.415257 51.675206 -62.841795 42.163333 1.934788 -4.632291 -33.401293 166.647473 -26.959249 142.019177 -89.136032 38.427358 50.299234 124.321489 -52.910057 54.390297 -83.732676 42.330462 69.989987 -19.597841 43.670689 2.221009 10.083106 -31.592321 -3.252282 9.054603 -24.050574 0.346762 -74.840941 72.961123 92.827929 -177.230043 72.376632 -171.122374 3.932038 11.257577 3.568926 -22.682011 -37.178312 -21.085441 159.220516 -48.028485 -170.415257 -51.675206 -62.841795 -42.163333 179.117993 -5.230225 -178.629314 6.232529 19.498104 -0.397195 178.927535 -16.453687 -89.421826 71.715345 5.871252 -19.941274 145.338335 -6.264511 -118.677783 -147.72226 -71.862534 -82.416306 36.036059 51.723116 -29.832321 89.976806 66.680668 -80.420352 0.000142 -0.018512 0.005816 73.400126 -86.892658 84.631014 -0.465225 1.226425 -0.428913 22.22494 -37.444822 20.585363 -180.0 75.749642 -0.0 180.0 75.749642 0.0 7.020854 4.02674 75.890629 -3.526001 -31.536837 -87.193359 -180.0 75.749642 -0.0 180.0 75.749642 0.0 -7.020854 4.02674 -75.890629 3.419183 -18.112039 83.042257
